<svg width="394" height="278" viewBox="0 0 394 278" fill="none" xmlns="http://www.w3.org/2000/svg">
<rect x="2.5" y="2.5" width="389" height="273" rx="57.5" fill="#F5F5F7" stroke="#DBE2E8" stroke-width="5"/>
<path d="M255.686 52.1635C303.908 52.1635 343 91.0415 343 139C343 186.958 303.908 225.836 255.686 225.836C207.464 225.836 168.373 186.958 168.373 139C168.373 91.0415 207.464 52.1635 255.686 52.1635ZM219.902 102.739V109.871H219.906V122.732C224.008 121.342 229.332 119.505 234.715 117.633L235.597 117.326V122.732C245.183 119.485 261.442 113.792 269.519 110.934L270.325 110.648L270.402 111.503C270.511 112.726 269.897 113.683 268.824 114.478C267.778 115.254 266.202 115.952 264.15 116.698L264.145 116.699L219.906 132.439V132.653H219.902V139.786H219.906V152.646C224.008 151.257 229.332 149.42 234.715 147.547L235.597 147.241V152.646C245.183 149.399 261.442 143.706 269.519 140.848L270.325 140.563L270.402 141.417C270.511 142.641 269.897 143.597 268.824 144.393C267.778 145.168 266.202 145.867 264.15 146.613L264.145 146.613L219.906 162.353V175.175C223.948 173.744 229.167 171.896 234.712 169.928L235.597 169.613V175.175C249.571 170.23 277.572 160.297 284.611 157.697C291.613 155.111 292.533 151.055 292.309 149.65L292.301 149.596V138.63C292.301 136.253 291.113 134.791 289.583 133.89C288.019 132.97 286.112 132.653 284.84 132.653H274.933L274.71 131.359C279.121 129.779 282.667 128.5 284.611 127.782C291.613 125.196 292.533 121.141 292.309 119.735L292.301 119.682V108.715C292.301 106.338 291.112 104.877 289.583 103.976C288.019 103.056 286.112 102.739 284.84 102.739H219.902ZM281.061 169.169V169.807H282.902V175.114H283.611V169.807H285.454V169.169H281.061ZM286.548 169.169V175.114H287.211V170.597H287.269L289.099 175.114H289.739L291.57 170.597H291.627V175.114H292.291V169.169H291.445L289.453 174.104H289.385L287.395 169.169H286.548Z" fill="#044749"/>
<path d="M113.504 52.1635C133.356 52.1636 148.605 56.329 159.25 64.6606C166.762 70.5402 171.623 78.1372 173.834 87.4506C164.335 102.353 158.83 120.032 158.83 139C158.83 159.067 164.99 177.69 175.524 193.11C172.765 200.722 168.062 207.179 161.408 212.477C150.188 221.383 133.499 225.836 111.346 225.836C100.844 225.836 90.3423 224.686 79.8409 222.388C71.2994 220.402 63.5188 218.084 56.5001 215.432C53.6257 214.346 51.7892 211.556 51.7891 208.483V179.302C51.7894 173.805 57.4369 170.092 62.6075 171.959C68.1042 173.945 73.7058 175.672 79.4102 177.139C89.0483 179.581 98.1833 180.802 106.815 180.802C112.856 180.802 117.244 179.869 119.978 178.001C122.855 176.134 124.293 173.045 124.293 168.736C124.293 160.404 119.258 156.238 109.189 156.238H101.286C97.0701 156.238 93.6514 152.82 93.6514 148.604V128.534C93.6517 124.318 97.0702 120.9 101.286 120.9H105.735C115.23 120.9 119.977 116.878 119.978 108.833C119.977 101.077 115.23 97.1977 105.735 97.1977C98.8305 97.1977 91.6377 98.8499 84.1573 102.154C79.8927 103.955 75.6977 106.084 71.5733 108.539C66.9835 111.272 60.8353 109.143 59.4073 103.996L51.2794 74.6967C50.3181 71.2306 51.8974 67.5428 55.1602 66.0287C62.5407 62.6042 70.6959 59.6345 79.6251 57.1196C90.8459 53.8156 102.139 52.1635 113.504 52.1635ZM168.96 149.122C171.031 151.602 172.831 154.404 174.355 157.531C177.088 162.846 178.455 168.736 178.455 175.2C178.455 176.59 178.409 177.954 178.321 179.291C173.464 170.085 170.219 159.904 168.96 149.122ZM174.894 106.014C174.27 111.584 172.742 116.484 170.313 120.716C171.407 115.636 172.948 110.722 174.894 106.014Z" fill="#044749"/>
</svg>
