<svg width="64" height="64" viewBox="0 0 100 100" fill="none" xmlns="http://www.w3.org/2000/svg">
  <rect width="100" height="100" fill="#00A597"/>
  <g transform="translate(20, 24) scale(0.05195)">
    <path d="M973.48 0C991.035 0 1017.36 4.37003 1038.95 17.0795C1060.07 29.5138 1076.47 49.6935 1076.48 82.5051V233.909L1076.6 234.639C1079.69 254.041 1066.98 310.037 970.311 345.736C943.478 355.645 894.526 373.292 833.625 395.1L836.707 412.979H973.48C991.035 412.979 1017.36 417.349 1038.95 430.058C1060.07 442.493 1076.47 462.672 1076.48 495.484V646.888L1076.6 647.618C1079.69 667.021 1066.97 723.017 970.311 758.715C873.129 794.603 486.586 931.738 293.673 1000V923.222L281.443 927.565C204.898 954.733 132.861 980.25 77.0536 1000V822.991L687.784 605.708L687.85 605.691C716.177 595.396 737.926 585.75 752.373 575.043C767.19 564.061 775.666 550.857 774.154 533.97L773.095 522.168L761.97 526.108C650.463 565.566 426.017 644.153 293.673 688.988V614.361L281.497 618.597C207.185 644.444 133.679 669.81 77.0536 688.996V511.447H77V412.979H77.0536V410.012L687.784 192.729L687.85 192.712C716.175 182.417 737.926 172.777 752.373 162.072C767.19 151.093 775.665 137.886 774.154 120.999L773.095 109.198L761.97 113.137C650.463 152.595 426.017 231.175 293.673 276.009V201.382L281.497 205.618C207.185 231.465 133.679 256.831 77.0536 276.017V98.4721H77V0H973.48Z" fill="white"/>
  </g>
</svg>
