<svg width="333" height="333" viewBox="0 0 333 333" fill="none" xmlns="http://www.w3.org/2000/svg">
<rect width="333" height="333" rx="16" fill="#00A597"/>
<path d="M247.756 63C251.374 63 256.798 63.9006 261.248 66.5199C265.6 69.0825 268.982 73.2413 268.982 80.0034V111.206L269.007 111.356C269.644 115.355 267.024 126.895 247.103 134.252C241.573 136.294 231.484 139.931 218.933 144.426L219.568 148.11H247.756C251.374 148.11 256.798 149.011 261.248 151.63C265.6 154.193 268.982 158.352 268.982 165.114V196.316L269.007 196.467C269.644 200.466 267.024 212.006 247.103 219.363C227.074 226.759 147.412 255.021 107.654 269.089V253.266L105.134 254.161C89.3585 259.76 74.5124 265.018 63.011 269.089V232.609L188.876 187.83L188.89 187.826C194.728 185.704 199.21 183.716 202.188 181.51C205.241 179.247 206.988 176.525 206.677 173.045L206.458 170.613L204.165 171.425C181.185 179.557 134.929 195.753 107.654 204.993V189.613L105.145 190.486C89.8298 195.813 74.6809 201.04 63.011 204.994V168.403H63V148.11H63.011V147.499L188.876 102.719L188.89 102.716C194.728 100.594 199.21 98.6074 202.188 96.4013C205.241 94.1385 206.988 91.4168 206.677 87.9365L206.458 85.5044L204.165 86.3163C181.185 94.4482 134.929 110.643 107.654 119.882V104.503L105.145 105.376C89.8298 110.702 74.6809 115.93 63.011 119.884V83.294H63V63H247.756Z" fill="white"/>
<path d="M237 253.817V252H249.499V253.817H244.258V268.916H242.24V253.817H237Z" fill="white"/>
<path d="M252.613 252H255.022L260.685 266.041H260.88L266.544 252H268.952V268.916H267.064V256.064H266.902L261.694 268.916H259.871L254.664 256.064H254.501V268.916H252.613V252Z" fill="white"/>
</svg>
