<svg width="256" height="256" viewBox="0 0 256 256" fill="none" xmlns="http://www.w3.org/2000/svg">
  <rect width="256" height="256" rx="40" fill="#00A597"/>
  <path fill="white" transform="translate(32, 32) scale(0.928)" d="M184.756 0.000488281C188.374 0.000488281 193.798 0.901103 198.248 3.52039C202.6 6.08295 205.982 10.2418 205.982 17.0039V48.2066L206.007 48.3569C206.644 52.3554 204.024 63.8957 184.103 71.2528C178.573 73.2949 168.484 76.9318 155.933 81.4261L156.568 85.1108H184.756C188.374 85.1108 193.798 86.0114 198.248 88.6307C202.6 91.1932 205.982 95.352 205.982 102.114V133.317L206.007 133.467C206.644 137.466 204.024 149.006 184.103 156.363C164.074 163.759 84.4115 192.021 44.6542 206.089V190.266L42.1338 191.161C26.3585 196.76 11.5124 202.019 0.0110396 206.089V169.61L125.876 124.83L125.89 124.827C131.728 122.705 136.21 120.717 139.188 118.51C142.241 116.247 143.988 113.526 143.677 110.046L143.458 107.613L141.165 108.425C118.185 116.557 71.9289 132.753 44.6542 141.993V126.613L42.1448 127.486C26.8298 132.813 11.6809 138.041 0.0110396 141.995V105.404H0V85.1108H0.0110396V84.4993L125.876 39.7197L125.89 39.7163C131.728 37.5946 136.21 35.6079 139.188 33.4018C142.241 31.139 143.988 28.4173 143.677 24.937L143.458 22.5049L141.165 23.3168C118.185 31.4487 71.9289 47.643 44.6542 56.8828V41.503L42.1448 42.376C26.8298 47.7028 11.6809 52.9305 0.0110396 56.8845V20.2945H0V0.000488281H184.756Z"/>
</svg>
